<svg width="24" height="24" viewBox="0 0 24 24" fill="none" xmlns="http://www.w3.org/2000/svg">
<path d="M8.13222 2.50391L4.42022 8.99991H3.00022C2.68822 8.99991 2.39522 9.14591 2.20522 9.39291C2.01622 9.64091 1.95322 9.96291 2.03522 10.2629L4.83422 20.5259C5.07022 21.3939 5.86422 21.9999 6.76422 21.9999H17.2372C18.1352 21.9999 18.9292 21.3949 19.1672 20.5249L21.9662 10.2619C22.0482 9.96191 21.9862 9.63991 21.7962 9.39191C21.6052 9.14591 21.3122 8.99991 21.0002 8.99991H19.5802L15.8682 2.50391L14.1322 3.49591L17.2772 8.99991H6.72322L9.86822 3.49591L8.13222 2.50391ZM14.0002 12.9999H16.0002V17.9999H14.0002V12.9999ZM8.00022 12.9999H10.0002V17.9999H8.00022V12.9999Z" fill="#1B1B1D"/>
</svg>
