<svg width="150" height="150" viewBox="0 0 150 150" fill="none" xmlns="http://www.w3.org/2000/svg">
<path d="M125.625 78.7087C124.944 77.9296 124.367 77.0796 123.891 76.1821C123.658 100.304 103.965 119.857 79.789 119.857C55.4681 119.857 35.6811 100.07 35.6811 75.7488C35.6811 51.4279 55.4681 31.6409 79.789 31.6409C100.711 31.6409 118.278 46.2847 122.779 65.8604L126.773 36.1669L126.863 35.4993C115.489 22.2161 98.6066 13.7828 79.789 13.7828C65.1082 13.7828 51.6057 18.918 40.9771 27.4822V28.1234V28.691V41.268V41.7673C40.9771 50.1681 36.6231 57.8378 29.7334 62.2204V111.382V112.229C41.0141 127.665 59.2485 137.714 79.789 137.714C101.373 137.714 120.412 126.619 131.51 109.834V108.926V82.594C129.258 81.8615 127.218 80.5307 125.625 78.7087Z" fill="#64646A"/>
<path d="M79.7889 39.1372C59.6011 39.1372 43.1768 55.5611 43.1768 75.7493C43.1768 95.9376 59.6006 112.361 79.7889 112.361C99.9771 112.361 116.401 95.9376 116.401 75.7493C116.401 55.5611 99.9766 39.1372 79.7889 39.1372Z" fill="#64646A"/>
<path d="M149.833 7.23399C149.833 4.04376 147.247 1.4577 144.057 1.4577C141.165 1.4577 138.718 3.59701 138.333 6.46392L129.892 69.2035C129.67 70.8551 130.172 72.5216 131.269 73.7759C132.366 75.0302 133.95 75.7493 135.617 75.7493H139.006V143.045C139.006 146.081 141.467 148.542 144.503 148.542C147.539 148.542 150 146.081 150 143.045L149.833 7.23399Z" fill="#64646A"/>
<path d="M33.4814 8.45379C33.4814 6.38344 31.8038 4.70587 29.7334 4.70587C27.6631 4.70587 25.9855 6.38344 25.9855 8.45379V29.1917H20.4886V8.45379C20.4886 6.38344 18.811 4.70587 16.7407 4.70587C14.6703 4.70587 12.9928 6.38344 12.9928 8.45379V29.1917H7.49583V8.45379C7.49583 6.38344 5.81826 4.70587 3.74791 4.70587C1.67757 4.70587 0 6.38344 0 8.45379V42.268C0 49.5734 4.70588 55.7969 11.2437 58.0772V143.045C11.2437 146.081 13.7049 148.542 16.7407 148.542C19.7765 148.542 22.2376 146.081 22.2376 143.045V58.0772C28.7755 55.7969 33.4814 49.5734 33.4814 42.268V8.45379Z" fill="#64646A"/>
</svg>
