<svg width="150" height="150" viewBox="0 0 150 150" fill="none" xmlns="http://www.w3.org/2000/svg">
<g clip-path="url(#clip0_11345_25587)">
<path d="M116.158 51.6431C114.487 50.5733 113.614 48.6526 113.937 46.7507C118.043 22.3889 99.2325 0.345636 75.0321 0.0040446C49.8342 -0.3535 30.5412 22.3538 35.0641 47.2453C35.402 49.1156 34.6418 51.0331 33.1278 52.1279C28.9393 55.1591 26.6245 60.058 26.9373 65.2254C27.7537 78.7148 44.6456 84.2447 53.3324 74.0623C53.4544 74.1374 53.5795 74.2156 53.7015 74.2879C54.9778 75.0605 55.7379 76.3803 55.7379 77.8195V84.2853C55.7379 86.7378 56.7107 89.0273 58.4781 90.7321C64.1097 96.165 73.6558 92.2689 73.6558 84.1289V69.4765C73.6558 65.9073 77.8224 64.0148 80.3625 66.4832C81.1382 67.2371 81.5637 68.2443 81.5637 69.3201V76.8276C81.5637 81.8523 85.7125 85.9598 90.851 85.7837C97.6047 85.5331 99.0405 80.4284 99.4127 76.5523C109.14 83.4198 122.636 76.7237 123.08 64.866C123.277 59.5666 120.625 54.4991 116.158 51.6431ZM68.338 20.8908C66.2011 21.6028 66.0663 21.9791 65.1254 21.9791C62.4499 21.9791 61.6557 18.3308 64.0681 17.2087C64.9439 16.8021 65.8511 16.4423 66.7676 16.1389C68.0815 15.7041 69.4954 16.4173 69.9302 17.7311C70.3619 19.0421 69.6518 20.4588 68.338 20.8908ZM52.6598 37.1223C51.0354 37.1223 49.8395 35.6021 50.2261 34.0224C51.1176 30.4 52.8444 26.9528 55.228 24.0593C56.1039 22.9926 57.6836 22.8393 58.7503 23.7152C59.817 24.5942 59.9702 26.1708 59.0912 27.2375C57.1831 29.5585 55.8004 32.3144 55.0872 35.2173C54.8088 36.3594 53.7859 37.1223 52.6598 37.1223ZM104.392 83.97C105.863 84.2469 106.713 85.799 106.162 87.1907L83.7749 143.717C80.4641 152.093 68.4496 152.097 65.1376 143.717L42.8166 87.3653C42.2447 85.922 43.1829 84.337 44.7206 84.1227C45.7313 83.9816 46.7358 83.7636 47.7236 83.4664C49.1757 83.0297 50.6609 84.0126 50.8051 85.5219C51.0385 87.9646 51.9172 91.3608 55.0025 94.336C62.6692 101.729 74.831 97.99 77.9257 88.7379C78.4584 87.1451 80.4131 86.617 81.7179 87.6743C87.8237 92.6227 97.5249 91.6677 101.927 84.9554C102.415 84.2121 103.333 83.7705 104.392 83.97Z" fill="#64646A"/>
</g>
<defs>
<clipPath id="clip0_11345_25587">
<rect width="150" height="150" fill="white"/>
</clipPath>
</defs>
</svg>
